<svg width="16" height="17" viewBox="0 0 16 17" fill="none" xmlns="http://www.w3.org/2000/svg">
<path fill-rule="evenodd" clip-rule="evenodd" d="M8 16.5C12.4183 16.5 16 12.9183 16 8.5C16 4.08172 12.4183 0.5 8 0.5C3.58172 0.5 0 4.08172 0 8.5C0 12.9183 3.58172 16.5 8 16.5ZM11.6736 6.46839C11.8771 6.20682 11.8299 5.82986 11.5684 5.62642C11.3068 5.42297 10.9298 5.4701 10.7264 5.73166L7.52079 9.85315C7.44951 9.9448 7.31543 9.95669 7.22913 9.87902L5.20138 8.05405C4.95508 7.83238 4.5757 7.85234 4.35403 8.09865C4.13235 8.34495 4.15232 8.72433 4.39863 8.946L6.42637 10.771C7.03048 11.3147 7.96904 11.2314 8.46802 10.5899L11.6736 6.46839Z" fill="#251D70"/>
</svg>
