<svg width="100" height="100" viewBox="0 0 100 100" fill="none" xmlns="http://www.w3.org/2000/svg">
<path d="M50 100C77.6142 100 100 77.6142 100 50C100 22.3857 77.6142 0 50 0C22.3857 0 0 22.3857 0 50C0 77.6142 22.3857 100 50 100Z" fill="#251D70"/>
<path d="M74.622 28.8938C75.2522 29.4095 65.913 41.9764 53.7663 56.9496L46.3943 65.8877L45.3821 67.11L44.3126 66.0023C34.7633 56.2048 28.3271 48.9473 28.7854 48.489C29.2438 48.0306 36.5203 54.505 46.2988 63.997L44.2362 64.2071L51.4554 55.1735C63.6021 40.1047 73.9726 28.3782 74.622 28.8938Z" fill="white"/>
</svg>
